<svg width="147" height="48" viewBox="0 0 147 48" fill="none" xmlns="http://www.w3.org/2000/svg">
<g clip-path="url(#clip0_67_845)">
<path d="M19.2892 0L0.286011 10.9581L9.13547 16.9574L19.8955 10.9122L29.9606 16.9574L39.854 11.4798L19.2892 0Z" fill="#BF047E"/>
<path d="M0.174438 10.9581V37.0448L8.76362 31.0427L9.0239 16.9574L0.174438 10.9581Z" fill="#6E0248"/>
<path d="M49.2727 21.2626L59.1661 26.7402L19.0032 47.9999L0 37.0447L8.84946 31.0426L19.6095 37.0877L49.2727 21.2626Z" fill="#BF047E"/>
<path d="M75.2547 20.1763C74.8972 19.7922 74.5511 19.5342 74.2193 19.4052C73.8847 19.2762 73.5501 19.2132 73.2097 19.2132C72.7063 19.2132 72.2515 19.302 71.8425 19.4826C71.4364 19.6603 71.0846 19.9097 70.7928 20.225C70.5011 20.5403 70.2723 20.91 70.1121 21.3314C69.9519 21.7528 69.8718 22.2085 69.8718 22.6929C69.8718 23.2146 69.9519 23.6961 70.1121 24.1376C70.2723 24.579 70.4982 24.9573 70.7928 25.2784C71.0846 25.5994 71.4364 25.8516 71.8425 26.0351C72.2487 26.2185 72.7063 26.3103 73.2097 26.3103C73.6044 26.3103 73.9848 26.2157 74.3566 26.0294C74.7285 25.8402 75.0717 25.5421 75.392 25.1293L76.8193 26.1469C76.3788 26.7517 75.8439 27.1931 75.2118 27.4683C74.5797 27.7434 73.9076 27.881 73.1925 27.881C72.4432 27.881 71.7539 27.7606 71.1275 27.517C70.5011 27.2734 69.9605 26.9294 69.5086 26.4851C69.0567 26.0408 68.702 25.5048 68.4446 24.8828C68.1872 24.2579 68.0613 23.5672 68.0613 22.8047C68.0613 22.0423 68.19 21.3171 68.4446 20.6779C68.702 20.0415 69.0567 19.4969 69.5086 19.0469C69.9605 18.5969 70.5011 18.2501 71.1275 18.0093C71.7539 17.7657 72.4432 17.6453 73.1925 17.6453C73.8504 17.6453 74.4625 17.7628 75.0259 17.995C75.5894 18.23 76.1128 18.6256 76.599 19.1845L75.2547 20.1763Z" fill="#1D1D1B"/>
<path d="M79.4821 21.9505H79.5107C79.6394 21.6753 79.8654 21.426 80.1915 21.1995C80.5175 20.9759 80.9351 20.8613 81.4471 20.8613C81.8876 20.8613 82.2594 20.9358 82.5654 21.082C82.8715 21.2282 83.1203 21.4202 83.3148 21.661C83.5064 21.8989 83.6437 22.1741 83.7267 22.4865C83.8096 22.7989 83.8497 23.1228 83.8497 23.4639V27.6316H82.2022V24.2894C82.2022 24.106 82.1936 23.9025 82.1736 23.676C82.1564 23.4525 82.1078 23.2404 82.0306 23.0426C81.9533 22.8448 81.8304 22.6814 81.6673 22.5467C81.5014 22.4149 81.2783 22.3461 80.9952 22.3461C80.712 22.3461 80.4889 22.3919 80.303 22.4836C80.1142 22.5754 79.9598 22.6986 79.8368 22.8563C79.7138 23.0111 79.6251 23.1916 79.5679 23.3923C79.5136 23.5929 79.485 23.805 79.485 24.0257V27.6316H77.8375V17.2296H79.485V21.9476L79.4821 21.9505Z" fill="#1D1D1B"/>
<path d="M87.0331 24.9086C87.0874 25.4045 87.279 25.7886 87.6108 26.0638C87.9397 26.3389 88.3373 26.4765 88.8064 26.4765C89.2182 26.4765 89.5643 26.3905 89.8418 26.2214C90.1221 26.0523 90.3652 25.8373 90.5768 25.5822L91.7581 26.4765C91.3748 26.9523 90.9429 27.2934 90.4681 27.4941C89.9934 27.6947 89.4928 27.7979 88.9723 27.7979C88.4775 27.7979 88.0112 27.7148 87.5708 27.5514C87.1303 27.3852 86.7528 27.153 86.4324 26.8491C86.1121 26.5453 85.8575 26.1813 85.6716 25.7542C85.4828 25.3271 85.3913 24.8542 85.3913 24.3296C85.3913 23.8051 85.4857 23.3321 85.6716 22.905C85.8604 22.478 86.1121 22.1139 86.4324 21.8101C86.7528 21.5063 87.1332 21.2741 87.5708 21.1078C88.0112 20.9416 88.4775 20.8613 88.9723 20.8613C89.4299 20.8613 89.8475 20.9416 90.2279 21.1021C90.6083 21.2626 90.9315 21.4948 91.2032 21.7958C91.4721 22.0996 91.6837 22.4722 91.8353 22.9165C91.9869 23.3608 92.0613 23.8739 92.0613 24.45V24.9029H87.0359L87.0331 24.9086ZM90.4109 23.6704C90.4024 23.1831 90.2508 22.8019 89.959 22.5209C89.6673 22.24 89.2583 22.1025 88.7377 22.1025C88.2429 22.1025 87.8511 22.2458 87.565 22.5295C87.2762 22.8133 87.1017 23.1945 87.0359 23.6704H90.4138H90.4109Z" fill="#1D1D1B"/>
<path d="M98.0991 23.0112C97.9075 22.8105 97.7044 22.65 97.4956 22.5296C97.284 22.4092 97.0695 22.3519 96.8492 22.3519C96.546 22.3519 96.2772 22.4064 96.0398 22.5181C95.8024 22.6271 95.5993 22.7761 95.4277 22.9596C95.259 23.143 95.1302 23.3551 95.0444 23.593C94.9586 23.8309 94.9129 24.0803 94.9129 24.3354C94.9129 24.5905 94.9558 24.8399 95.0444 25.0778C95.1302 25.3157 95.259 25.5278 95.4277 25.7113C95.5965 25.8947 95.7995 26.0409 96.0398 26.1527C96.2772 26.2616 96.5489 26.3189 96.8492 26.3189C97.1066 26.3189 97.344 26.2673 97.5643 26.1613C97.7845 26.0552 97.9704 25.9033 98.1277 25.6998L99.2261 26.8836C99.0602 27.0499 98.8714 27.1903 98.6569 27.3107C98.4424 27.4311 98.225 27.5257 98.0047 27.6002C97.7845 27.6747 97.5757 27.7263 97.3726 27.7578C97.1724 27.7894 96.998 27.8066 96.8521 27.8066C96.3573 27.8066 95.8911 27.7235 95.4506 27.5601C95.0101 27.3938 94.6326 27.1616 94.3122 26.8578C93.9919 26.554 93.7373 26.19 93.5514 25.7629C93.3626 25.3358 93.2711 24.8628 93.2711 24.3383C93.2711 23.8137 93.3655 23.3408 93.5514 22.9137C93.7402 22.4866 93.9919 22.1226 94.3122 21.8188C94.6326 21.5149 95.013 21.2828 95.4506 21.1165C95.8911 20.9503 96.3573 20.87 96.8521 20.87C97.2725 20.87 97.6958 20.9503 98.122 21.1108C98.5482 21.2713 98.92 21.5264 99.2404 21.8732L98.102 23.014L98.0991 23.0112Z" fill="#1D1D1B"/>
<path d="M100.213 17.2325H101.86V23.7678L104.4 21.0305H106.514L103.685 24.0287L106.691 27.6346H104.509L101.886 24.2637H101.857V27.6346H100.21V17.2325H100.213Z" fill="#1D1D1B"/>
<path d="M107.778 17.8918H110.415L113.009 24.7166L115.632 17.8918H118.241V27.6317H116.593V19.5429H116.565L113.613 27.6317H112.406L109.454 19.5429H109.426V27.6317H107.778V17.8918Z" fill="#1D1D1B"/>
<path d="M119.405 21.0276H121.218L123.057 25.608H123.086L124.733 21.0276H126.449L123.332 29.0477C123.212 29.3601 123.083 29.6324 122.94 29.8674C122.797 30.1025 122.631 30.2974 122.439 30.4579C122.248 30.6184 122.022 30.7388 121.759 30.8162C121.498 30.8936 121.184 30.9337 120.818 30.9337C120.389 30.9337 119.965 30.8793 119.554 30.7675L119.759 29.2827C119.888 29.3286 120.023 29.3687 120.166 29.4002C120.309 29.4317 120.452 29.4489 120.597 29.4489C120.798 29.4489 120.969 29.4317 121.107 29.3945C121.244 29.3572 121.361 29.2999 121.456 29.2225C121.553 29.1451 121.633 29.0448 121.696 28.9187C121.759 28.7954 121.827 28.6464 121.902 28.4715L122.216 27.6861L119.402 21.0276H119.405Z" fill="#1D1D1B"/>
<path d="M127.574 17.8918H129.304V26.0638H133.437V27.6317H127.574V17.8918Z" fill="#1D1D1B"/>
<path d="M134.344 18.7861C134.344 18.5196 134.441 18.2874 134.638 18.0925C134.836 17.8976 135.084 17.7972 135.388 17.7972C135.691 17.7972 135.942 17.8918 136.148 18.0781C136.354 18.2673 136.457 18.5024 136.457 18.7861C136.457 19.0699 136.354 19.3078 136.148 19.4941C135.942 19.6833 135.688 19.775 135.388 19.775C135.087 19.775 134.836 19.6776 134.638 19.4798C134.441 19.282 134.344 19.0498 134.344 18.7861ZM134.575 21.0276H136.223V27.6317H134.575V21.0276Z" fill="#1D1D1B"/>
<path d="M138.708 22.4321H137.35V21.0276H138.708V20.0932C138.708 19.6345 138.74 19.2189 138.806 18.8492C138.868 18.4765 138.991 18.1584 139.169 17.8918C139.346 17.6252 139.598 17.4217 139.918 17.2784C140.238 17.1351 140.656 17.0663 141.168 17.0663C141.543 17.0663 141.892 17.0978 142.212 17.1637L142.103 18.5683C141.983 18.5396 141.869 18.5167 141.76 18.4995C141.651 18.4823 141.537 18.4708 141.417 18.4708C141.188 18.4708 141.005 18.5081 140.868 18.5797C140.73 18.6542 140.622 18.7517 140.545 18.875C140.467 18.9982 140.416 19.1444 140.393 19.3078C140.37 19.474 140.359 19.646 140.359 19.8295V21.0276H141.883V22.4321H140.359V27.6317H138.711V22.4321H138.708Z" fill="#1D1D1B"/>
<path d="M142.181 22.4321V21.0276H143.539V19.1157H145.187V21.0276H147V22.4321H145.187V25.3214C145.187 25.651 145.25 25.9119 145.373 26.1068C145.496 26.2988 145.742 26.3963 146.108 26.3963C146.254 26.3963 146.414 26.3791 146.588 26.3475C146.763 26.316 146.9 26.2615 147 26.1899V27.5801C146.826 27.6632 146.614 27.7205 146.362 27.7521C146.111 27.7836 145.887 27.8008 145.696 27.8008C145.255 27.8008 144.898 27.7521 144.617 27.6575C144.337 27.56 144.12 27.4138 143.96 27.216C143.799 27.0183 143.691 26.7746 143.631 26.4794C143.571 26.187 143.542 25.8459 143.542 25.4618V22.435H142.183L142.181 22.4321Z" fill="#1D1D1B"/>
</g>
<defs>
<clipPath id="clip0_67_845">
<rect width="147" height="48" fill="white"/>
</clipPath>
</defs>
</svg>
